<svg xmlns="http://www.w3.org/2000/svg" viewBox="0 0 1200 675" role="img" aria-labelledby="title desc">
  <title id="title">Komari 养鸡场主题预览</title>
  <desc id="desc">A low-poly chicken representing a healthy server in a green 3D farm.</desc>
  <defs>
    <linearGradient id="sky" x1="0" y1="0" x2="0" y2="1">
      <stop offset="0" stop-color="#9bd8f5"/>
      <stop offset="1" stop-color="#eaf8d4"/>
    </linearGradient>
    <linearGradient id="grass" x1="0" y1="0" x2="0" y2="1">
      <stop offset="0" stop-color="#8bcf55"/>
      <stop offset="1" stop-color="#4d8f3a"/>
    </linearGradient>
    <filter id="shadow"><feGaussianBlur stdDeviation="14"/></filter>
  </defs>
  <rect width="1200" height="675" fill="url(#sky)"/>
  <circle cx="1010" cy="115" r="58" fill="#fff4a8" opacity=".9"/>
  <path d="M0 390 Q230 315 470 385 T900 370 T1200 390 V675 H0Z" fill="url(#grass)"/>
  <ellipse cx="604" cy="548" rx="230" ry="38" fill="#173c22" opacity=".25" filter="url(#shadow)"/>
  <g transform="translate(600 320)">
    <rect x="-120" y="35" width="240" height="145" rx="58" fill="#f2eee3" stroke="#655d50" stroke-width="8"/>
    <path d="M-135 65 L-230 20 L-205 110 L-125 130Z" fill="#d9d2c3" stroke="#655d50" stroke-width="8" stroke-linejoin="round"/>
    <path d="M-80 170 L-98 275 M78 170 L98 275" stroke="#e7952f" stroke-width="25" stroke-linecap="round"/>
    <path d="M-123 278 H-62 M62 278 H123" stroke="#e7952f" stroke-width="18" stroke-linecap="round"/>
    <path d="M38 30 L52 88" stroke="#f2eee3" stroke-width="45" stroke-linecap="round"/>
    <rect x="5" y="-55" width="115" height="105" rx="45" fill="#f2eee3" stroke="#655d50" stroke-width="8"/>
    <path d="M-2 -64 Q28 -125 58 -65" fill="#d84b45" stroke="#8c2f35" stroke-width="7" stroke-linejoin="round"/>
    <path d="M112 -16 L190 14 L112 42Z" fill="#f0a336" stroke="#a75e20" stroke-width="7" stroke-linejoin="round"/>
    <circle cx="88" cy="-20" r="13" fill="#171717"/>
    <circle cx="91" cy="-24" r="4" fill="#fff"/>
    <path d="M56 38 Q80 66 103 38" fill="none" stroke="#b63d42" stroke-width="8" stroke-linecap="round"/>
  </g>
  <g transform="translate(90 70)">
    <rect width="420" height="116" rx="24" fill="#163322" opacity=".82"/>
    <text x="30" y="49" fill="#fff" font-family="system-ui,sans-serif" font-size="31" font-weight="700">Komari 养鸡场</text>
    <text x="30" y="87" fill="#bfe89d" font-family="system-ui,sans-serif" font-size="22">节点状态 → 小鸡状态 · 访客实时互啄</text>
  </g>
  <g transform="translate(840 490)">
    <circle cx="62" cy="62" r="58" fill="#fff" opacity=".92"/>
    <circle cx="62" cy="62" r="42" fill="none" stroke="#45b86b" stroke-width="14" stroke-dasharray="190 75" transform="rotate(-90 62 62)"/>
    <text x="62" y="70" text-anchor="middle" fill="#173c22" font-family="system-ui,sans-serif" font-size="24" font-weight="700">72%</text>
  </g>
</svg>
